<?xml version="1.0" encoding="UTF-8"?>
<svg xmlns="http://www.w3.org/2000/svg" xmlns:xlink="http://www.w3.org/1999/xlink" width="30px" height="30px" viewBox="0 0 30 40" version="1.1">
<g id="surface1">
<path style=" stroke:none;fill-rule:nonzero;fill:rgb(0%,0%,0%);fill-opacity:1;" d="M 1.09375 7.484375 C 1.09375 3.351562 4.445312 0 8.578125 0 L 21.421875 0 C 25.554688 0 28.90625 3.351562 28.90625 7.484375 C 28.90625 10.101562 27.5625 12.40625 25.523438 13.742188 C 27.5625 15.078125 28.90625 17.382812 28.90625 20 C 28.90625 24.132812 25.554688 27.484375 21.421875 27.484375 L 21.257812 27.484375 C 19.320312 27.484375 17.554688 26.75 16.226562 25.539062 L 16.226562 32.4375 C 16.226562 36.625 12.789062 40 8.617188 40 C 4.492188 40 1.09375 36.65625 1.09375 32.515625 C 1.09375 29.898438 2.4375 27.59375 4.46875 26.257812 C 2.4375 24.921875 1.09375 22.617188 1.09375 20 C 1.09375 17.382812 2.4375 15.078125 4.46875 13.742188 C 2.4375 12.40625 1.09375 10.101562 1.09375 7.484375 Z M 13.773438 14.96875 L 8.578125 14.96875 C 5.796875 14.96875 3.546875 17.21875 3.546875 20 C 3.546875 22.765625 5.78125 25.015625 8.546875 25.03125 C 8.554688 25.03125 8.570312 25.03125 8.578125 25.03125 L 13.773438 25.03125 Z M 16.226562 20 C 16.226562 22.78125 18.476562 25.03125 21.257812 25.03125 L 21.421875 25.03125 C 24.195312 25.03125 26.453125 22.78125 26.453125 20 C 26.453125 17.21875 24.195312 14.96875 21.421875 14.96875 L 21.257812 14.96875 C 18.476562 14.96875 16.226562 17.21875 16.226562 20 Z M 8.578125 27.484375 C 8.570312 27.484375 8.554688 27.484375 8.546875 27.484375 C 5.78125 27.5 3.546875 29.75 3.546875 32.515625 C 3.546875 35.289062 5.828125 37.546875 8.617188 37.546875 C 11.453125 37.546875 13.773438 35.25 13.773438 32.4375 L 13.773438 27.484375 Z M 8.578125 2.453125 C 5.796875 2.453125 3.546875 4.703125 3.546875 7.484375 C 3.546875 10.265625 5.796875 12.515625 8.578125 12.515625 L 13.773438 12.515625 L 13.773438 2.453125 Z M 16.226562 12.515625 L 21.421875 12.515625 C 24.195312 12.515625 26.453125 10.265625 26.453125 7.484375 C 26.453125 4.703125 24.195312 2.453125 21.421875 2.453125 L 16.226562 2.453125 Z M 16.226562 12.515625 "/>
</g>
</svg>
