<?xml version="1.0" encoding="UTF-8"?>
<svg xmlns="http://www.w3.org/2000/svg" xmlns:xlink="http://www.w3.org/1999/xlink" width="30px" height="30px" viewBox="0 0 30 34" version="1.1">
<g id="surface1">
<path style=" stroke:none;fill-rule:nonzero;fill:rgb(0%,0%,0%);fill-opacity:1;" d="M 0 2.125 L 0 31.875 L 30 31.875 L 30 2.125 Z M 16.324219 25.328125 C 16.324219 28.222656 14.613281 29.542969 12.113281 29.542969 C 9.855469 29.542969 8.550781 28.390625 7.882812 26.988281 L 10.179688 25.613281 C 10.621094 26.390625 11.023438 27.046875 11.992188 27.046875 C 12.917969 27.046875 13.507812 26.6875 13.507812 25.289062 L 13.507812 15.785156 L 16.324219 15.785156 Z M 22.996094 29.542969 C 20.378906 29.542969 18.683594 28.308594 17.859375 26.6875 L 20.15625 25.375 C 20.757812 26.351562 21.550781 27.074219 22.933594 27.074219 C 24.101562 27.074219 24.851562 26.496094 24.851562 25.691406 C 24.851562 24.734375 24.085938 24.398438 22.792969 23.832031 L 22.089844 23.535156 C 20.054688 22.679688 18.710938 21.59375 18.710938 19.316406 C 18.710938 17.21875 20.324219 15.625 22.835938 15.625 C 24.628906 15.625 25.914062 16.242188 26.839844 17.863281 L 24.644531 19.257812 C 24.160156 18.402344 23.636719 18.0625 22.828125 18.0625 C 22.003906 18.0625 21.480469 18.582031 21.480469 19.257812 C 21.480469 20.09375 22.003906 20.433594 23.214844 20.957031 L 23.917969 21.257812 C 26.316406 22.273438 27.664062 23.316406 27.664062 25.652344 C 27.664062 28.164062 25.667969 29.542969 22.996094 29.542969 Z M 22.996094 29.542969 "/>
</g>
</svg>
